USFL
nRows=236
nColumns=2
inDegrees=yes
endheader
time	tib_ant_r	
6.3871	 57.105621	
6.42036	 57.111801	
6.45363	 57.101293	
6.4869	 57.119846	
6.52016	 57.121560	
6.55343	 57.153226	
6.58669	 57.198669	
6.61996	 57.148091	
6.65323	 57.107362	
6.68649	 57.150241	
6.71976	 57.099779	
6.75302	 57.042204	
6.78629	 57.015726	
6.81956	 57.008457	
6.85282	 57.038799	
6.88609	 57.013103	
6.91935	 56.997953	
6.95262	 56.994253	
6.98589	 57.003966	
7.01915	 57.013611	
7.05242	 57.040843	
7.08569	 57.033876	
7.11895	 57.046211	
7.15222	 57.075606	
7.18548	 57.097874	
7.21875	 57.107121	
7.25202	 57.116682	
7.28528	 57.154361	
7.31855	 57.226045	
7.35181	 57.176354	
7.38508	 57.196837	
7.41835	 57.245288	
7.45161	 57.156426	
7.48488	 56.953892	
7.51815	 56.676282	
7.55141	 56.270674	
7.58468	 56.157515	
7.61794	 55.872323	
7.65121	 55.532916	
7.68448	 55.412881	
7.71774	 55.093788	
7.75101	 54.591351	
7.78427	 54.276522	
7.81754	 53.904223	
7.85081	 53.392961	
7.88407	 52.904871	
7.91734	 52.590680	
7.9506	 52.334862	
7.98387	 52.064697	
8.01714	 51.721194	
8.0504	 51.421549	
8.08367	 51.196902	
8.11694	 50.631293	
8.1502	 50.086844	
8.18347	 50.124221	
8.21673	 49.808197	
8.25	 49.321664	
8.28327	 48.952571	
8.31653	 48.615392	
8.3498	 48.676846	
8.38306	 48.463011	
8.41633	 48.203188	
8.4496	 48.093028	
8.48286	 47.910581	
8.51613	 47.704617	
8.5494	 47.479973	
8.58266	 47.127520	
8.61593	 46.886072	
8.64919	 46.811822	
8.68246	 46.716992	
8.71573	 46.481194	
8.74899	 46.205109	
8.78226	 46.037751	
8.81552	 45.848858	
8.84879	 45.629293	
8.88206	 45.524120	
8.91532	 45.239106	
8.94859	 44.930147	
8.98185	 44.713481	
9.01512	 44.449811	
9.04839	 44.411785	
9.08165	 44.151644	
9.11492	 44.043405	
9.14819	 43.969246	
9.18145	 43.771954	
9.21472	 43.491610	
9.24798	 43.356619	
9.28125	 43.038200	
9.31452	 42.753687	
9.34778	 42.688022	
9.38105	 43.571903	
9.41431	 47.267796	
9.44758	 48.124000	
9.48085	 47.371222	
9.51411	 47.254075	
9.54738	 46.808650	
9.58065	 46.452162	
9.61391	 46.627322	
9.64718	 46.483153	
9.68044	 46.269793	
9.71371	 46.149731	
9.74698	 46.804957	
9.78024	 46.714021	
9.81351	 47.092897	
9.84677	 47.208094	
9.88004	 47.194993	
9.91331	 47.299805	
9.94657	 47.458886	
9.97984	 47.496357	
10.0131	 47.683808	
10.0464	 47.766141	
10.0796	 47.786650	
10.1129	 47.806708	
10.1462	 47.868548	
10.1794	 47.931260	
10.2127	 47.763455	
10.246	 47.716213	
10.2792	 47.718305	
10.3125	 47.560200	
10.3458	 47.512559	
10.379	 47.246065	
10.4123	 47.131777	
10.4456	 47.105557	
10.4788	 47.217505	
10.5121	 47.359094	
10.5454	 47.450319	
10.5786	 47.453336	
10.6119	 47.580262	
10.6452	 44.199621	
10.6784	 44.165471	
10.7117	 44.157474	
10.745	 43.801164	
10.7782	 43.677575	
10.8115	 43.845295	
10.8448	 43.549175	
10.878	 43.492102	
10.9113	 43.469492	
10.9446	 43.494784	
10.9778	 43.409375	
11.0111	 43.426237	
11.0444	 43.447365	
11.0776	 43.419051	
11.1109	 43.519321	
11.1442	 43.499858	
11.1774	 43.468315	
11.2107	 43.549262	
11.244	 43.379857	
11.2772	 43.560028	
11.3105	 43.243433	
11.3437	 43.234150	
11.377	 43.263794	
11.4103	 43.285564	
11.4435	 43.510130	
11.4768	 43.961917	
11.5101	 44.138403	
11.5433	 43.968335	
11.5766	 44.315348	
11.6099	 44.189070	
11.6431	 44.268536	
11.6764	 44.392080	
11.7097	 44.429017	
11.7429	 44.412418	
11.7762	 44.360415	
11.8095	 44.493803	
11.8427	 44.437863	
11.876	 44.408228	
11.9093	 44.467513	
11.9425	 44.340378	
11.9758	 44.395095	
12.0091	 44.311287	
12.0423	 44.175493	
12.0756	 44.386732	
12.1089	 44.052319	
12.1421	 43.398625	
12.1754	 43.046079	
12.2087	 42.600178	
12.2419	 42.449975	
12.2752	 42.498829	
12.3085	 42.293525	
12.3417	 42.251297	
12.375	 42.328376	
12.4083	 42.412218	
12.4415	 42.414158	
12.4748	 42.599843	
12.5081	 42.816755	
12.5413	 42.764797	
12.5746	 42.996649	
12.6079	 43.211678	
12.6411	 43.116867	
12.6744	 43.366724	
12.7077	 43.582888	
12.7409	 43.683444	
12.7742	 43.601875	
12.8075	 43.542612	
12.8407	 43.738515	
12.874	 43.772178	
12.9073	 43.743145	
12.9405	 43.781756	
12.9738	 43.835229	
13.0071	 43.763023	
13.0403	 43.871702	
13.0736	 43.728214	
13.1069	 43.736612	
13.1401	 43.738629	
13.1734	 43.653565	
13.2067	 43.767012	
13.2399	 43.830460	
13.2732	 43.760631	
13.3065	 43.898026	
13.3397	 43.927476	
13.373	 43.876718	
13.4062	 43.883081	
13.4395	 43.847424	
13.4728	 43.972119	
13.506	 44.028817	
13.5393	 44.006066	
13.5726	 44.066618	
13.6058	 43.961371	
13.6391	 43.914606	
13.6724	 43.975926	
13.7056	 44.112898	
13.7389	 44.113574	
13.7722	 44.282839	
13.8054	 44.371252	
13.8387	 44.297672	
13.872	 44.343534	
13.9052	 44.364615	
13.9385	 44.510304	
13.9718	 44.808857	
14.005	 44.748705	
14.0383	 44.977939	
14.0716	 45.223913	
14.1048	 45.261697	
14.1381	 45.504561	
14.1714	 45.652792	
14.2046	 45.792890	
